<svg width="30" height="30" viewBox="0 0 30 30" fill="none" xmlns="http://www.w3.org/2000/svg">
<path d="M15 3C8.37109 3 3 8.37109 3 15C3 21.6289 8.37109 27 15 27C21.6289 27 27 21.6289 27 15C27 8.37109 21.6289 3 15 3ZM10.4961 8.40234C11.3398 8.40234 11.8984 8.96484 11.8984 9.71094C11.8984 10.4609 11.3398 11.0195 10.4023 11.0195C9.5625 11.0234 9 10.4609 9 9.71094C9 8.96484 9.5625 8.40234 10.4961 8.40234ZM12 20H9V12H12V20ZM22 20H19.1758V15.6289C19.1758 14.418 18.4219 14.1406 18.1406 14.1406C17.8594 14.1406 16.918 14.3242 16.918 15.6289C16.918 15.8125 16.918 20 16.918 20H14V12H16.918V13.1172C17.293 12.4648 18.0469 12 19.4609 12C20.8711 12 22 13.1172 22 15.6289V20Z" fill="white"/>
</svg>
