<svg width="142" height="50" viewBox="0 0 142 50" fill="none" xmlns="http://www.w3.org/2000/svg">
<g filter="url(#filter0_d_87_17)">
<path d="M43.2399 5.55457H9.03598C6.8136 5.55457 5.01199 6.97563 5.01199 8.72861V27.7729C5.01199 29.5259 6.8136 30.9469 9.03598 30.9469H43.2399C45.4623 30.9469 47.2639 29.5259 47.2639 27.7729V8.72861C47.2639 6.97563 45.4623 5.55457 43.2399 5.55457Z" stroke="#1551B0" stroke-width="1.15493" stroke-linecap="round" stroke-linejoin="round"/>
<path d="M26.1379 23.0118C29.4715 23.0118 32.1739 20.8802 32.1739 18.2508C32.1739 15.6213 29.4715 13.4897 26.1379 13.4897C22.8043 13.4897 20.1019 15.6213 20.1019 18.2508C20.1019 20.8802 22.8043 23.0118 26.1379 23.0118Z" stroke="#1551B0" stroke-width="1.15493" stroke-linecap="round" stroke-linejoin="round"/>
<path d="M17.0839 38.882H53.2998C54.3671 38.882 55.3906 38.5476 56.1452 37.9524C56.8999 37.3571 57.3238 36.5498 57.3238 35.708V19.8378" stroke="#1551B0" stroke-width="1.15493" stroke-linecap="round" stroke-linejoin="round"/>
</g>
<path d="M81.0238 16.3936V18.6587H76.2952V21.1056H79.8334V23.3045H76.2952V28H73.468V16.3936H81.0238ZM83.9316 17.8155C83.4356 17.8155 83.0278 17.6722 82.7081 17.3856C82.3995 17.088 82.2452 16.7243 82.2452 16.2944C82.2452 15.8535 82.3995 15.4898 82.7081 15.2032C83.0278 14.9056 83.4356 14.7568 83.9316 14.7568C84.4165 14.7568 84.8133 14.9056 85.122 15.2032C85.4416 15.4898 85.6014 15.8535 85.6014 16.2944C85.6014 16.7243 85.4416 17.088 85.122 17.3856C84.8133 17.6722 84.4165 17.8155 83.9316 17.8155ZM85.3369 18.7744V28H82.5097V18.7744H85.3369ZM93.0071 18.6752C94.0873 18.6752 94.947 19.0279 95.5863 19.7333C96.2366 20.4277 96.5617 21.3867 96.5617 22.6101V28H93.7511V22.9904C93.7511 22.3732 93.5913 21.8937 93.2716 21.552C92.952 21.2103 92.5221 21.0395 91.982 21.0395C91.4419 21.0395 91.0121 21.2103 90.6924 21.552C90.3728 21.8937 90.2129 22.3732 90.2129 22.9904V28H87.3857V18.7744H90.2129V19.9979C90.4995 19.59 90.8853 19.2704 91.3703 19.0389C91.8553 18.7964 92.4009 18.6752 93.0071 18.6752ZM103.668 25.6027V28H102.23C101.205 28 100.406 27.752 99.8325 27.256C99.2593 26.749 98.9728 25.9278 98.9728 24.7925V21.1221H97.8485V18.7744H98.9728V16.5259H101.8V18.7744H103.652V21.1221H101.8V24.8256C101.8 25.1012 101.866 25.2996 101.998 25.4208C102.131 25.542 102.351 25.6027 102.66 25.6027H103.668ZM113.94 23.2384C113.94 23.5029 113.923 23.7785 113.89 24.0651H107.492C107.536 24.6382 107.718 25.0791 108.037 25.3877C108.368 25.6853 108.77 25.8341 109.244 25.8341C109.95 25.8341 110.44 25.5365 110.716 24.9413H113.725C113.57 25.5476 113.289 26.0932 112.881 26.5781C112.485 27.0631 111.983 27.4434 111.377 27.7189C110.771 27.9945 110.093 28.1323 109.343 28.1323C108.439 28.1323 107.635 27.9394 106.929 27.5536C106.224 27.1678 105.673 26.6167 105.276 25.9003C104.879 25.1838 104.681 24.3461 104.681 23.3872C104.681 22.4283 104.874 21.5906 105.26 20.8741C105.656 20.1577 106.207 19.6066 106.913 19.2208C107.618 18.835 108.428 18.6421 109.343 18.6421C110.236 18.6421 111.03 18.8295 111.724 19.2043C112.419 19.579 112.959 20.1136 113.344 20.808C113.741 21.5024 113.94 22.3125 113.94 23.2384ZM111.046 22.4944C111.046 22.0094 110.881 21.6236 110.55 21.3371C110.22 21.0505 109.806 20.9072 109.31 20.9072C108.836 20.9072 108.434 21.045 108.103 21.3205C107.784 21.5961 107.585 21.9874 107.508 22.4944H111.046ZM114.869 23.3872C114.869 22.4283 115.062 21.5906 115.448 20.8741C115.844 20.1577 116.39 19.6066 117.084 19.2208C117.79 18.835 118.594 18.6421 119.498 18.6421C120.656 18.6421 121.62 18.9452 122.392 19.5515C123.174 20.1577 123.687 21.0119 123.929 22.1141H120.92C120.667 21.4087 120.176 21.056 119.449 21.056C118.931 21.056 118.517 21.2599 118.209 21.6677C117.9 22.0645 117.746 22.6377 117.746 23.3872C117.746 24.1367 117.9 24.7154 118.209 25.1232C118.517 25.52 118.931 25.7184 119.449 25.7184C120.176 25.7184 120.667 25.3657 120.92 24.6603H123.929C123.687 25.7404 123.174 26.5892 122.392 27.2064C121.609 27.8236 120.645 28.1323 119.498 28.1323C118.594 28.1323 117.79 27.9394 117.084 27.5536C116.39 27.1678 115.844 26.6167 115.448 25.9003C115.062 25.1838 114.869 24.3461 114.869 23.3872ZM131.112 18.6752C132.171 18.6752 133.019 19.0279 133.659 19.7333C134.298 20.4277 134.617 21.3867 134.617 22.6101V28H131.807V22.9904C131.807 22.3732 131.647 21.8937 131.327 21.552C131.008 21.2103 130.578 21.0395 130.038 21.0395C129.498 21.0395 129.068 21.2103 128.748 21.552C128.428 21.8937 128.269 22.3732 128.269 22.9904V28H125.441V15.7653H128.269V20.0144C128.555 19.6066 128.947 19.2814 129.443 19.0389C129.939 18.7964 130.495 18.6752 131.112 18.6752Z" fill="white"/>
<defs>
<filter id="filter0_d_87_17" x="0.690141" y="0" width="60.9556" height="49.0564" filterUnits="userSpaceOnUse" color-interpolation-filters="sRGB">
<feFlood flood-opacity="0" result="BackgroundImageFix"/>
<feColorMatrix in="SourceAlpha" type="matrix" values="0 0 0 0 0 0 0 0 0 0 0 0 0 0 0 0 0 0 127 0" result="hardAlpha"/>
<feOffset dy="2.30986"/>
<feGaussianBlur stdDeviation="1.15493"/>
<feComposite in2="hardAlpha" operator="out"/>
<feColorMatrix type="matrix" values="0 0 0 0 0 0 0 0 0 0 0 0 0 0 0 0 0 0 0.15 0"/>
<feBlend mode="normal" in2="BackgroundImageFix" result="effect1_dropShadow_87_17"/>
<feBlend mode="normal" in="SourceGraphic" in2="effect1_dropShadow_87_17" result="shape"/>
</filter>
</defs>
</svg>
