<svg width="134" height="103" viewBox="0 0 134 103" fill="none" xmlns="http://www.w3.org/2000/svg">
<g filter="url(#filter0_d_27_115)">
<path d="M77 52.125H47.25C45.317 52.125 43.75 53.692 43.75 55.625V76.625C43.75 78.558 45.317 80.125 47.25 80.125H77C78.933 80.125 80.5 78.558 80.5 76.625V55.625C80.5 53.692 78.933 52.125 77 52.125Z" stroke="#34D1F3" stroke-width="2" stroke-linecap="round" stroke-linejoin="round"/>
<path d="M62.125 71.375C65.0245 71.375 67.375 69.0245 67.375 66.125C67.375 63.2255 65.0245 60.875 62.125 60.875C59.2255 60.875 56.875 63.2255 56.875 66.125C56.875 69.0245 59.2255 71.375 62.125 71.375Z" stroke="#34D1F3" stroke-width="2" stroke-linecap="round" stroke-linejoin="round"/>
<path d="M54.25 88.875H85.75C86.6783 88.875 87.5685 88.5063 88.2249 87.8499C88.8813 87.1935 89.25 86.3033 89.25 85.375V67.875" stroke="#34D1F3" stroke-width="2" stroke-linecap="round" stroke-linejoin="round"/>
<path d="M18.2763 14.908V17.572H7.36831V26.032H16.2243V28.696H7.36831V40H4.09231V14.908H18.2763ZM23.9249 17.068C23.3009 17.068 22.7729 16.852 22.3409 16.42C21.9089 15.988 21.6929 15.46 21.6929 14.836C21.6929 14.212 21.9089 13.684 22.3409 13.252C22.7729 12.82 23.3009 12.604 23.9249 12.604C24.5249 12.604 25.0289 12.82 25.4369 13.252C25.8689 13.684 26.0849 14.212 26.0849 14.836C26.0849 15.46 25.8689 15.988 25.4369 16.42C25.0289 16.852 24.5249 17.068 23.9249 17.068ZM25.5089 20.272V40H22.2329V20.272H25.5089ZM40.7043 19.912C43.1043 19.912 45.0483 20.644 46.5363 22.108C48.0243 23.548 48.7683 25.636 48.7683 28.372V40H45.5283V28.84C45.5283 26.872 45.0363 25.372 44.0523 24.34C43.0683 23.284 41.7243 22.756 40.0203 22.756C38.2923 22.756 36.9123 23.296 35.8803 24.376C34.8723 25.456 34.3683 27.028 34.3683 29.092V40H31.0923V20.272H34.3683V23.08C35.0163 22.072 35.8923 21.292 36.9963 20.74C38.1243 20.188 39.3603 19.912 40.7043 19.912ZM58.1157 22.972V34.6C58.1157 35.56 58.3197 36.244 58.7277 36.652C59.1357 37.036 59.8437 37.228 60.8517 37.228H63.2637V40H60.3117C58.4877 40 57.1197 39.58 56.2077 38.74C55.2957 37.9 54.8397 36.52 54.8397 34.6V22.972H52.2837V20.272H54.8397V15.304H58.1157V20.272H63.2637V22.972H58.1157ZM85.2329 29.38C85.2329 30.004 85.1969 30.664 85.1249 31.36H69.3569C69.4769 33.304 70.1369 34.828 71.3369 35.932C72.5609 37.012 74.0369 37.552 75.7649 37.552C77.1809 37.552 78.3569 37.228 79.2929 36.58C80.2529 35.908 80.9249 35.02 81.3089 33.916H84.8369C84.3089 35.812 83.2529 37.36 81.6689 38.56C80.0849 39.736 78.1169 40.324 75.7649 40.324C73.8929 40.324 72.2129 39.904 70.7249 39.064C69.2609 38.224 68.1089 37.036 67.2689 35.5C66.4289 33.94 66.0089 32.14 66.0089 30.1C66.0089 28.06 66.4169 26.272 67.2329 24.736C68.0489 23.2 69.1889 22.024 70.6529 21.208C72.1409 20.368 73.8449 19.948 75.7649 19.948C77.6369 19.948 79.2929 20.356 80.7329 21.172C82.1729 21.988 83.2769 23.116 84.0449 24.556C84.8369 25.972 85.2329 27.58 85.2329 29.38ZM81.8489 28.696C81.8489 27.448 81.5729 26.38 81.0209 25.492C80.4689 24.58 79.7129 23.896 78.7529 23.44C77.8169 22.96 76.7729 22.72 75.6209 22.72C73.9649 22.72 72.5489 23.248 71.3729 24.304C70.2209 25.36 69.5609 26.824 69.3929 28.696H81.8489ZM88.3332 30.1C88.3332 28.06 88.7412 26.284 89.5572 24.772C90.3732 23.236 91.5012 22.048 92.9412 21.208C94.4052 20.368 96.0732 19.948 97.9452 19.948C100.369 19.948 102.361 20.536 103.921 21.712C105.505 22.888 106.549 24.52 107.053 26.608H103.525C103.189 25.408 102.529 24.46 101.545 23.764C100.585 23.068 99.3852 22.72 97.9452 22.72C96.0732 22.72 94.5612 23.368 93.4092 24.664C92.2572 25.936 91.6812 27.748 91.6812 30.1C91.6812 32.476 92.2572 34.312 93.4092 35.608C94.5612 36.904 96.0732 37.552 97.9452 37.552C99.3852 37.552 100.585 37.216 101.545 36.544C102.505 35.872 103.165 34.912 103.525 33.664H107.053C106.525 35.68 105.469 37.3 103.885 38.524C102.301 39.724 100.321 40.324 97.9452 40.324C96.0732 40.324 94.4052 39.904 92.9412 39.064C91.5012 38.224 90.3732 37.036 89.5572 35.5C88.7412 33.964 88.3332 32.164 88.3332 30.1ZM121.216 19.912C122.704 19.912 124.048 20.236 125.248 20.884C126.448 21.508 127.384 22.456 128.056 23.728C128.752 25 129.1 26.548 129.1 28.372V40H125.86V28.84C125.86 26.872 125.368 25.372 124.384 24.34C123.4 23.284 122.056 22.756 120.352 22.756C118.624 22.756 117.244 23.296 116.212 24.376C115.204 25.456 114.7 27.028 114.7 29.092V40H111.424V13.36H114.7V23.08C115.348 22.072 116.236 21.292 117.364 20.74C118.516 20.188 119.8 19.912 121.216 19.912Z" fill="black"/>
</g>
<defs>
<filter id="filter0_d_27_115" x="0.0923157" y="12.604" width="133.008" height="90.396" filterUnits="userSpaceOnUse" color-interpolation-filters="sRGB">
<feFlood flood-opacity="0" result="BackgroundImageFix"/>
<feColorMatrix in="SourceAlpha" type="matrix" values="0 0 0 0 0 0 0 0 0 0 0 0 0 0 0 0 0 0 127 0" result="hardAlpha"/>
<feOffset dy="4"/>
<feGaussianBlur stdDeviation="2"/>
<feComposite in2="hardAlpha" operator="out"/>
<feColorMatrix type="matrix" values="0 0 0 0 0 0 0 0 0 0 0 0 0 0 0 0 0 0 0.15 0"/>
<feBlend mode="normal" in2="BackgroundImageFix" result="effect1_dropShadow_27_115"/>
<feBlend mode="normal" in="SourceGraphic" in2="effect1_dropShadow_27_115" result="shape"/>
</filter>
</defs>
</svg>
