<svg width="346" height="301" viewBox="0 0 346 301" fill="none" xmlns="http://www.w3.org/2000/svg">
<path d="M197.11 266.288C194.717 262.673 191.479 260.028 187.407 259.038C183.856 258.175 180.205 258.322 176.596 258.352L130.96 258.732C127.052 258.764 123.304 262.418 123.486 266.796C123.666 271.138 126.771 274.896 130.96 274.861C144.328 274.75 157.697 274.638 171.065 274.527C174.216 274.501 177.37 274.44 180.522 274.451C181.229 274.453 181.934 274.494 182.641 274.502C182.813 274.504 182.936 274.503 183.024 274.499C183.046 274.506 183.064 274.512 183.092 274.521C183.461 274.63 183.84 274.706 184.211 274.809C184.081 274.813 184.451 275.063 184.638 275.148C184.663 275.202 184.718 275.298 184.809 275.448C184.936 275.705 185.312 276.485 185.327 276.461C185.892 278.002 186.359 279.584 186.723 281.195C187.591 284.747 187.782 285.49 187.907 288.822C188.065 293.032 191.232 297.087 195.381 296.887C199.296 296.698 203.025 293.337 202.856 288.822C202.57 281.214 201.332 272.668 197.11 266.288Z" fill="#E6E6E6"/>
<path d="M133.643 284.486C132.786 278.882 131.945 273.273 131.071 267.672C130.184 261.989 128.374 256.785 124.275 253.056C123.18 252.059 122.045 251.129 120.904 250.202C120.503 249.876 120.103 249.549 119.707 249.216C119.683 249.196 119.668 249.184 119.647 249.166C119.604 249.126 119.552 249.078 119.481 249.014C117.773 247.454 116.123 245.824 114.55 244.093C113.154 242.555 111.819 240.951 110.545 239.282C110.226 238.865 109.912 238.444 109.602 238.02C109.549 237.947 109.261 237.546 109.072 237.284C108.896 237.023 108.574 236.55 108.52 236.467C108.157 235.914 107.801 235.356 107.452 234.793C105.071 230.945 103.01 226.877 101.292 222.638C101.121 222.217 100.955 221.795 100.793 221.369C100.749 221.239 100.693 221.073 100.618 220.851C100.272 219.823 99.926 218.797 99.6095 217.758C98.9368 215.549 98.3585 213.309 97.8746 211.036C97.6353 209.913 97.4199 208.785 97.2284 207.651C97.1296 207.068 97.0372 206.484 96.9512 205.898C96.9371 205.801 96.8531 205.169 96.8037 204.812C96.7672 204.453 96.6992 203.818 96.6901 203.72C96.6353 203.13 96.5867 202.539 96.5443 201.948C96.4487 200.617 96.3841 199.284 96.3505 197.949C96.293 195.576 96.3324 193.204 96.4686 190.831C96.5462 189.498 96.6566 188.169 96.7925 186.842C96.8007 186.76 96.8071 186.695 96.813 186.637C96.8212 186.578 96.8308 186.51 96.8422 186.426C96.9428 185.693 97.0487 184.961 97.167 184.231C97.6154 181.459 98.1984 178.714 98.9138 176.008C99.2525 174.728 99.6204 173.459 100.018 172.2C100.195 171.641 100.377 171.084 100.565 170.529C100.553 170.565 101.118 169.009 101.125 168.957C103.365 163.247 107.029 158.041 107.034 151.554C107.037 147.163 103.594 142.956 99.5595 143.158C97.5482 143.24 95.6449 144.161 94.2506 145.727C92.8563 147.294 92.08 149.383 92.0853 151.554C92.0853 151.653 92.0848 151.737 92.0846 151.819C92.047 151.956 92.0155 152.07 91.9872 152.171C91.5504 153.195 91.0153 154.168 90.5358 155.167C89.2229 157.9 88.1023 160.724 87.0377 163.589C85.295 168.254 83.9611 173.085 83.0534 178.018C81.0804 188.828 80.9272 199.933 82.6013 210.801C85.4992 229.86 95.056 248.105 108.342 260.368C109.495 261.432 110.676 262.461 111.869 263.468C112.362 263.885 112.859 264.294 113.359 264.701C113.596 264.893 114.575 265.726 114.144 265.323C115.07 266.175 115.46 266.605 115.698 267.233C115.732 267.378 115.779 267.574 115.843 267.843C116.011 268.551 116.17 269.258 116.302 269.976C117.458 276.252 118.262 282.634 119.228 288.95C119.892 293.29 124.844 296.115 128.423 294.814C132.588 293.3 134.354 289.137 133.643 284.486Z" fill="#E6E6E6"/>
<path d="M197.866 300.764C194.727 300.773 191.713 299.438 189.485 297.052C187.257 294.666 185.997 291.424 185.982 288.037V278.838C177.055 279.916 146.488 279.666 137.726 278.147V287.669C137.703 291.054 136.44 294.291 134.214 296.675C131.988 299.059 128.979 300.397 125.842 300.397C122.706 300.397 119.696 299.059 117.47 296.675C115.244 294.291 113.981 291.054 113.958 287.669V268.974C102.091 261.86 92.1974 251.459 85.2995 238.842C78.4016 226.226 74.7488 211.852 74.7181 197.204C74.7181 172.088 85.2676 148.658 103.662 132.922C115.621 122.656 130.152 116.483 145.388 115.194C147.456 115.019 149.536 114.93 151.572 114.93C158.744 114.93 191.101 116.125 199.22 118.646L217.731 98.8259C218.004 98.5305 218.351 98.3294 218.73 98.248C219.108 98.1666 219.501 98.2086 219.857 98.3688C220.216 98.5229 220.523 98.7906 220.739 99.1366C220.954 99.4826 221.068 99.8909 221.064 100.308V103.459L224.669 99.6071C224.94 99.3114 225.288 99.1099 225.666 99.0284C226.044 98.9468 226.437 98.9889 226.793 99.1493C227.152 99.3033 227.46 99.571 227.675 99.9171C227.891 100.263 228.005 100.672 228.001 101.089V136.304C237.29 145.339 244.37 156.708 248.613 169.401C252.856 182.095 254.132 195.723 252.327 209.076C250.522 222.429 245.692 235.095 238.265 245.952C230.838 256.81 221.044 265.522 209.75 271.319V288.037C209.735 291.424 208.475 294.666 206.247 297.052C204.019 299.438 201.005 300.773 197.866 300.764ZM186.916 277.695V288.037C186.94 291.154 188.104 294.135 190.155 296.33C192.206 298.524 194.977 299.756 197.866 299.756C200.755 299.756 203.526 298.524 205.577 296.33C207.628 294.135 208.792 291.154 208.816 288.037V270.682L209.082 270.545C221.755 264.057 232.513 253.906 240.162 241.22C249.908 225.031 253.962 205.611 251.589 186.477C249.215 167.343 240.571 149.757 227.222 136.903L227.067 136.753V101.089C227.07 100.872 227.012 100.66 226.9 100.48C226.788 100.3 226.627 100.161 226.44 100.083C226.254 99.9971 226.048 99.974 225.85 100.017C225.651 100.059 225.469 100.165 225.328 100.321L220.13 105.876V100.308C220.133 100.091 220.075 99.8784 219.963 99.6986C219.851 99.5187 219.69 99.3803 219.503 99.3018C219.317 99.2161 219.11 99.1932 218.911 99.236C218.713 99.2789 218.53 99.3856 218.389 99.542L199.481 119.786L199.212 119.695C191.665 117.147 158.798 115.938 151.572 115.938C149.561 115.938 147.505 116.026 145.461 116.199C130.411 117.472 116.056 123.571 104.242 133.712C86.0729 149.256 75.6523 172.398 75.6523 197.204C75.6834 211.723 79.3166 225.967 86.1747 238.458C93.0327 250.949 102.865 261.231 114.651 268.236L114.892 268.38V287.669C114.916 290.786 116.081 293.766 118.131 295.96C120.182 298.155 122.954 299.386 125.842 299.386C128.73 299.386 131.502 298.155 133.553 295.96C135.604 293.766 136.768 290.786 136.792 287.669V276.941L137.345 277.053C145.219 278.651 178.375 278.903 186.388 277.769L186.916 277.695Z" fill="#3F3D56"/>
<path d="M134.536 60.04L82.8044 76.8145C81.159 77.3501 79.7779 78.5686 78.9646 80.2023C78.1514 81.836 77.9724 83.7511 78.467 85.5271C78.9616 87.3031 80.0893 88.7946 81.6025 89.6739C83.1156 90.5533 84.8904 90.7486 86.5369 90.2169L131.807 75.5342L132.756 75.2267C132.948 69.9537 134.274 64.8011 136.628 60.1761C136.333 60.0326 136.017 59.944 135.694 59.914C135.304 59.8732 134.91 59.9161 134.536 60.04Z" fill="#34D1F3"/>
<path d="M85.6423 93.7931C84.9555 93.7913 84.2867 93.5567 83.7303 93.1224C83.1739 92.6882 82.758 92.0762 82.5415 91.3731L79.3066 80.8407C79.1715 80.4008 79.118 79.9366 79.1492 79.4744C79.1804 79.0123 79.2956 78.5613 79.4884 78.1472C79.6811 77.7332 79.9476 77.3641 80.2725 77.0612C80.5975 76.7582 80.9746 76.5273 81.3822 76.3816L123.486 61.3259C123.894 61.1801 124.324 61.1224 124.752 61.156C125.181 61.1896 125.599 61.3139 125.982 61.5218C126.366 61.7297 126.708 62.0171 126.989 62.3676C127.27 62.7182 127.484 63.125 127.619 63.5648L130.854 74.0972C131.123 74.9635 131.069 75.9088 130.703 76.7329C130.338 77.557 129.689 78.1951 128.895 78.5122C128.856 78.528 128.817 78.5428 128.777 78.5568L86.6741 93.612C86.3414 93.7317 85.993 93.7928 85.6423 93.7931Z" fill="#2F2E41"/>
<path d="M164.493 41.3351C155.996 41.3386 147.833 44.9098 141.732 51.2928C135.631 57.6758 132.072 66.3696 131.807 75.5342C131.798 75.892 131.793 76.255 131.793 76.6179C131.793 83.5961 133.711 90.4177 137.304 96.2199C140.898 102.022 146.005 106.544 151.98 109.215C157.955 111.885 164.53 112.584 170.873 111.223C177.216 109.861 183.043 106.501 187.616 101.567C192.189 96.6322 195.303 90.3454 196.565 83.5012C197.827 76.657 197.179 69.5628 194.704 63.1157C192.229 56.6686 188.038 51.1582 182.66 47.2813C177.283 43.4044 170.961 41.3351 164.493 41.3351ZM164.493 110.893C156.071 110.883 147.997 107.269 142.041 100.843C136.086 94.4176 132.737 85.7052 132.728 76.6179C132.728 76.1491 132.737 75.6854 132.756 75.2267C133.009 68.5128 135.085 62.0272 138.727 56.5764C142.369 51.1257 147.415 46.9502 153.238 44.5691C159.062 42.1881 165.406 41.7065 171.481 43.1844C177.556 44.6623 183.094 48.0344 187.407 52.8814C191.72 57.7283 194.618 63.8364 195.74 70.4459C196.861 77.0555 196.157 83.875 193.716 90.0565C191.274 96.2379 187.202 101.509 182.007 105.213C176.811 108.918 170.721 110.893 164.493 110.893Z" fill="#3F3D56"/>
<path d="M192.055 76.6179C192.055 84.505 189.151 92.069 183.982 97.6461C178.813 103.223 171.803 106.356 164.493 106.356C157.184 106.356 150.173 103.223 145.005 97.6461C139.836 92.069 136.932 84.505 136.932 76.6179C136.932 75.6753 136.974 74.7479 137.053 73.8305C137.718 66.2187 141.073 59.1752 146.424 54.1627C151.774 49.1502 158.708 46.5537 165.786 46.9124C172.864 47.2711 179.543 50.5574 184.434 56.089C189.326 61.6205 192.055 68.9723 192.055 76.6179Z" fill="#E6E6E6"/>
<path d="M172.701 78.5937C172.033 77.646 171.154 76.8953 170.146 76.4112C168.902 75.8457 167.618 75.3906 166.306 75.0503V66.9554C168.323 67.2836 170.214 68.2142 171.767 69.642L173.29 66.1389C172.414 65.297 171.408 64.6266 170.318 64.158C169.111 63.6303 167.843 63.2794 166.549 63.1147V59.0118H163.022V63.155C161.66 63.32 160.346 63.796 159.168 64.5512C158.104 65.2309 157.208 66.1786 156.557 67.3133C155.935 68.4207 155.613 69.6934 155.627 70.9878C155.566 72.3904 155.943 73.7746 156.697 74.9193C157.391 75.9103 158.307 76.6944 159.359 77.1975C160.623 77.7797 161.929 78.2467 163.265 78.5937V86.3509C160.885 86.1572 158.617 85.1808 156.767 83.5535L155.244 87.0616C156.278 87.9843 157.455 88.7042 158.72 89.1886C160.105 89.7238 161.553 90.0494 163.022 90.1564V94.224H166.549V90.0808C168.508 89.8498 170.345 88.9409 171.785 87.49C172.42 86.8336 172.921 86.0421 173.257 85.1658C173.593 84.2895 173.757 83.3474 173.738 82.3992C173.797 81.0413 173.432 79.7013 172.701 78.5937ZM163.265 74.1935C162.406 73.9123 161.607 73.4497 160.915 72.8326C160.641 72.5694 160.424 72.244 160.28 71.8797C160.137 71.5154 160.069 71.1213 160.084 70.7257C160.058 69.8279 160.364 68.956 160.934 68.3012C161.566 67.6143 162.381 67.1579 163.265 66.9958V74.1935ZM168.52 84.9194C167.924 85.5789 167.148 86.0152 166.306 86.1644V79.4909C167.111 79.724 167.864 80.1303 168.52 80.6855C168.769 80.9146 168.966 81.2013 169.098 81.5242C169.23 81.847 169.293 82.1978 169.282 82.5504C169.314 83.4155 169.042 84.2618 168.52 84.9194Z" fill="#34D1F3"/>
<path d="M87.1436 136.48C86.4215 136.478 85.7199 136.22 85.1477 135.745C84.5755 135.269 84.1646 134.604 83.9787 133.851L82.2176 126.658C81.9971 125.754 82.118 124.793 82.5537 123.985C82.9894 123.177 83.7043 122.588 84.5416 122.348L140.104 106.506C140.942 106.27 141.833 106.402 142.582 106.873C143.33 107.344 143.876 108.115 144.098 109.019L145.59 115.113L145.311 115.136C131.061 116.332 117.426 121.906 106.021 131.2L105.94 131.243L87.9732 136.364C87.7025 136.441 87.4237 136.48 87.1436 136.48Z" fill="#2F2E41"/>
<path d="M77.9415 172.008C71.4238 170.969 65.1903 168.426 59.6659 164.552C56.929 162.634 54.3954 160.398 52.1104 157.884C49.8551 155.402 47.6975 152.581 46.5805 149.276C45.5057 146.217 45.5611 142.831 46.7352 139.815C47.8933 136.818 50.1055 134.439 52.8869 133.199C55.6849 131.995 59.0654 131.867 61.7885 133.185C63.0861 133.799 64.2089 134.774 65.0418 136.011C65.4289 136.581 65.7156 137.223 65.8874 137.905C66.0469 138.523 66.0614 139.174 65.9297 139.8C65.77 140.424 65.4884 141.005 65.1038 141.502C64.7191 142 64.2404 142.403 63.6996 142.684C62.5094 143.343 61.2198 143.768 59.8914 143.937C58.5553 144.134 56.636 144.313 55.5619 143.156C55.3408 142.927 55.1669 142.65 55.0515 142.344C54.9708 142.109 54.9432 141.857 54.971 141.609C54.9553 141.718 55.0358 141.371 55.0312 141.385C55.0142 141.436 54.9407 141.561 55.0452 141.369C55.0779 141.305 55.1143 141.244 55.1541 141.186C55.1186 141.235 55.0407 141.318 55.1799 141.176C55.2949 141.04 55.4429 140.942 55.607 140.892C55.6716 140.871 55.7372 140.855 55.8021 140.836C55.9669 140.788 55.6378 140.839 55.8064 140.833C55.8715 140.831 55.9373 140.832 56.0021 140.829C56.1675 140.821 55.839 140.781 55.9975 140.824C56.059 140.84 56.12 140.857 56.1806 140.877C56.3124 140.922 56.0873 140.773 56.1766 140.885C56.2812 141.015 56.0667 140.757 56.1856 140.884C56.2448 140.947 56.3006 141.013 56.3527 141.083C56.559 141.302 56.8372 141.426 57.127 141.426C57.4169 141.426 57.695 141.302 57.9013 141.083C58.1006 140.858 58.2117 140.558 58.2117 140.247C58.2117 139.936 58.1006 139.637 57.9013 139.412C56.8216 137.968 54.6887 138.324 53.5965 139.545C52.2035 141.102 52.7551 143.569 54.1101 144.927C55.6441 146.465 57.8166 146.572 59.7898 146.314C61.4573 146.142 63.0824 145.646 64.5869 144.851C66.0818 144.059 67.251 142.696 67.8681 141.026C68.1467 140.136 68.2468 139.191 68.1617 138.255C68.0766 137.319 67.8084 136.414 67.3746 135.598C65.6325 132.065 62.0252 130.253 58.4595 129.939C56.6238 129.784 54.7777 130.023 53.0282 130.643C51.2787 131.262 49.6604 132.25 48.2671 133.549C45.5815 136.158 43.9278 139.781 43.6479 143.668C43.3366 147.698 44.7859 151.612 46.8988 154.865C49.1108 158.169 51.7505 161.115 54.7372 163.611C60.5762 168.641 67.4253 172.127 74.7364 173.788C75.6061 173.982 76.4804 174.148 77.3593 174.286C77.639 174.359 77.934 174.315 78.1842 174.161C78.4345 174.008 78.6212 173.758 78.7063 173.461C78.7814 173.159 78.7432 172.837 78.6001 172.565C78.457 172.293 78.2204 172.093 77.9415 172.008L77.9415 172.008Z" fill="#3F3D56"/>
<path d="M182.294 120.658C172.745 120.513 163.225 120.774 153.736 121.442C150.493 121.671 147.686 122.908 147.686 124.987C147.686 126.725 150.47 128.761 153.736 128.531C163.221 127.863 172.74 127.601 182.294 127.747C190.083 127.865 190.078 120.776 182.294 120.658Z" fill="#CCCCCC"/>
<path d="M168.18 127.396C167.148 127.396 142.905 127.354 142.905 123.741C142.905 120.128 167.148 120.086 168.18 120.086C169.212 120.086 193.455 120.128 193.455 123.741C193.455 127.354 169.212 127.396 168.18 127.396ZM143.853 123.741C144.516 124.836 153.428 126.388 168.18 126.388C182.932 126.388 191.843 124.836 192.507 123.741C191.844 122.646 182.932 121.095 168.18 121.095C153.428 121.095 144.516 122.646 143.853 123.741V123.741Z" fill="#3F3D56"/>
<path d="M245.096 222.382C250.463 222.221 257.142 222.02 262.288 217.965C263.82 216.708 265.079 215.104 265.976 213.267C266.874 211.429 267.388 209.402 267.483 207.328C267.588 204.125 266.515 201.329 264.463 199.458C261.775 197.007 257.851 196.433 253.621 197.774L258.003 163.223L254.787 162.747L249.635 203.366L252.322 202.036C255.436 200.495 259.71 199.711 262.367 202.133C263.019 202.766 263.527 203.553 263.852 204.433C264.176 205.312 264.309 206.261 264.238 207.205C264.159 208.749 263.773 210.256 263.106 211.625C262.439 212.993 261.507 214.191 260.372 215.135C256.368 218.291 251.044 218.699 245.006 218.881L245.096 222.382Z" fill="#3F3D56"/>
<path d="M236.203 166.202H218.717V169.706H236.203V166.202Z" fill="#3F3D56"/>
<path d="M95.0563 152.592C94.278 152.589 93.526 152.287 92.935 151.741C92.344 151.194 91.9527 150.439 91.8312 149.609L90.7638 142.259C90.6305 141.335 90.8425 140.391 91.3533 139.636C91.864 138.88 92.6319 138.373 93.4883 138.227L150.261 128.629C151.117 128.485 151.992 128.714 152.692 129.265C153.393 129.816 153.862 130.645 153.997 131.569L155.065 138.919C155.198 139.843 154.986 140.787 154.475 141.543C153.965 142.299 153.197 142.805 152.34 142.951L95.5679 152.549C95.3987 152.577 95.2276 152.592 95.0563 152.592Z" fill="#2F2E41"/>
<path d="M71.5611 66.46C84.7188 66.46 95.3853 54.951 95.3853 40.754C95.3853 26.557 84.7188 15.048 71.5611 15.048C58.4033 15.048 47.7369 26.557 47.7369 40.754C47.7369 54.951 58.4033 66.46 71.5611 66.46Z" fill="#34D1F3"/>
<path d="M85.0499 47.4053C85.8114 47.1179 86.5069 46.658 87.0899 46.0564C87.4756 45.6275 87.7697 45.1127 87.9516 44.5483C88.1336 43.9838 88.1989 43.3833 88.1432 42.7887C88.1108 42.3649 87.988 41.9549 87.7844 41.5908C87.5808 41.2267 87.302 40.9184 86.9697 40.6898C86.1075 40.1177 84.9682 40.1393 83.8179 40.7147L83.6851 30.6803L82.751 30.6946L82.907 42.4911L83.6182 41.9878C84.4428 41.4052 85.6277 40.9827 86.4801 41.5485C86.691 41.6983 86.867 41.8985 86.9944 42.1337C87.1218 42.3688 87.1973 42.6325 87.2149 42.9042C87.2542 43.3471 87.2046 43.794 87.0695 44.2144C86.9344 44.6348 86.7169 45.0189 86.4319 45.3405C85.4191 46.4248 83.9201 46.7881 82.2093 47.1203L82.3748 48.1124C83.2843 47.9634 84.1796 47.7267 85.0499 47.4053Z" fill="#2F2E41"/>
<path d="M93.3053 29.976L88.3302 30.7889L88.47 31.7855L93.4452 30.9726L93.3053 29.976Z" fill="#2F2E41"/>
<path d="M77.6015 32.5415L72.6264 33.3545L72.7662 34.3511L77.7414 33.5381L77.6015 32.5415Z" fill="#2F2E41"/>
<path d="M87.3052 152.142C86.4484 152.14 85.6124 151.857 84.9086 151.33C84.2047 150.803 83.6664 150.057 83.3651 149.191L66.939 101.726C64.9313 95.9051 65.1456 89.4622 67.5351 83.8113C69.9245 78.1604 74.2939 73.7629 79.6845 71.5837L93.0409 66.2024C93.5573 65.9929 94.1071 65.8957 94.6585 65.9164C95.2099 65.937 95.7521 66.0751 96.2539 66.3228C96.7544 66.5641 97.2054 66.9106 97.5804 67.3421C97.9554 67.7736 98.2469 68.2814 98.438 68.8358L128.866 130.825C129.063 131.384 129.157 131.979 129.14 132.577C129.123 133.175 128.997 133.764 128.769 134.309C128.541 134.854 128.215 135.345 127.81 135.754C127.405 136.163 126.93 136.481 126.41 136.691L88.7745 151.854C88.3046 152.044 87.807 152.142 87.3052 152.142Z" fill="#2F2E41"/>
<path d="M88.9886 67.8349L119.179 111.397L98.7506 68.2921C98.5819 67.7892 98.323 67.327 97.9887 66.9321C97.6544 66.5371 97.2513 66.2171 96.8024 65.9903C96.3534 65.7634 95.8675 65.6342 95.3722 65.6101C94.877 65.586 94.3822 65.6673 93.9162 65.8496L88.9886 67.8349Z" fill="#E6E6E6"/>
<path d="M136.792 100.918L82.8862 97.171C82.0365 97.112 81.2059 96.8729 80.4418 96.4675C79.6778 96.0621 78.9952 95.4983 78.4331 94.8083C77.871 94.1183 77.4403 93.3155 77.1657 92.4459C76.8911 91.5763 76.7779 90.6568 76.8327 89.74C76.8874 88.8232 77.1089 87.927 77.4847 87.1026C77.8604 86.2782 78.3829 85.5417 79.0224 84.9352C79.662 84.3287 80.4059 83.864 81.2119 83.5677C82.0178 83.2714 82.87 83.1493 83.7197 83.2084L137.626 86.9547C138.023 86.9823 138.412 87.0942 138.77 87.2841C139.128 87.4739 139.448 87.7379 139.711 88.0611C139.974 88.3842 140.176 88.7602 140.305 89.1674C140.433 89.5747 140.486 90.0053 140.461 90.4346L140.017 97.8587C139.966 98.7258 139.597 99.5352 138.992 100.109C138.387 100.683 137.596 100.973 136.792 100.918Z" fill="#34D1F3"/>
<path d="M122.388 103.319C122.316 103.319 122.245 103.317 122.174 103.312H122.173L77.909 100.236C77.4804 100.206 77.0615 100.085 76.6762 99.881C76.2908 99.6765 75.9465 99.3922 75.663 99.0442C75.3795 98.6962 75.1623 98.2913 75.0238 97.8528C74.8853 97.4142 74.8283 96.9505 74.8559 96.4881L75.6128 83.8073C75.6404 83.345 75.7522 82.893 75.9417 82.4772C76.1312 82.0614 76.3948 81.6899 76.7173 81.3841C77.0399 81.0782 77.4151 80.8439 77.8216 80.6945C78.2281 80.5451 78.6579 80.4835 79.0865 80.5134L123.351 83.5895C124.216 83.6507 125.023 84.0796 125.596 84.7822C126.168 85.4847 126.459 86.4036 126.404 87.3371L125.647 100.018C125.605 100.698 125.383 101.35 125.006 101.896C124.629 102.442 124.115 102.86 123.523 103.098C123.16 103.245 122.775 103.32 122.388 103.319Z" fill="#2F2E41"/>
<path d="M71.288 23.6599C74.4221 20.7514 78.7261 23.3532 82.3203 22.8978C85.759 22.462 88.4743 19.1338 89.1679 15.5981C89.9772 11.473 87.9928 7.34029 85.068 4.76839C81.8646 1.95152 77.6161 1.14287 73.5902 1.66401C68.9759 2.2613 64.7559 4.58207 60.9694 7.38916C57.3145 10.0148 53.9533 13.0879 50.9531 16.5471C48.2665 19.7486 45.9903 23.5647 45.2635 27.8728C44.6029 31.7879 45.1073 36.1264 47.2523 39.4431C48.3898 41.143 49.914 42.498 51.6781 43.3773C53.5174 44.3518 55.4795 45.0485 57.2615 46.1503C59.9558 47.8164 62.5745 51.2708 61.7305 54.8657C61.5495 55.651 61.1924 56.3762 60.6906 56.9776C60.0877 57.6998 59.0002 56.7455 59.6047 56.0214C60.6664 54.7497 60.6246 53.0536 60.0588 51.5353C59.3859 49.8244 58.1945 48.4108 56.6797 47.5261C54.8144 46.3754 52.7551 45.6651 50.8433 44.617C49.0134 43.6595 47.4249 42.2392 46.2132 40.4769C43.9251 37.0459 43.2406 32.5806 43.7596 28.45C44.3211 23.9799 46.4497 19.918 49.118 16.5141C52.0218 12.8097 55.5888 9.67398 59.2327 6.85699C63.1427 3.83434 67.4625 1.27889 72.2427 0.354632C76.3863 -0.446559 80.8776 0.0467048 84.5011 2.48316C87.8833 4.75743 90.4769 8.66963 90.7348 13.0411C90.8274 15.0301 90.4271 17.0099 89.5752 18.7765C88.7232 20.5432 87.4504 22.0331 85.8876 23.0927C84.2841 24.1281 82.4197 24.5941 80.5576 24.4251C78.5668 24.2876 76.5741 23.6298 74.5706 23.8124C73.664 23.8718 72.8001 24.2484 72.1097 24.8853C71.4249 25.5207 70.6088 24.2901 71.288 23.6599V23.6599Z" fill="#2F2E41"/>
<path d="M345.444 301H0.556135C0.408896 301 0.267837 300.936 0.163873 300.824C0.0599103 300.711 0.00152588 300.559 0.00152588 300.4C0.00152588 300.241 0.0599103 300.089 0.163873 299.976C0.267837 299.864 0.408896 299.8 0.556135 299.8H345.444C345.591 299.8 345.733 299.863 345.837 299.975C345.941 300.088 346 300.241 346 300.4C346 300.559 345.941 300.712 345.837 300.824C345.733 300.937 345.591 301 345.444 301Z" fill="#3F3D56"/>
</svg>
